<svg xmlns="http://www.w3.org/2000/svg" viewBox="0 0 24 24" fill="none" stroke="currentColor" stroke-width="2" stroke-linecap="round" stroke-linejoin="round">
  <path d="M12 22C17.5228 22 22 17.5228 22 12C22 6.47715 17.5228 2 12 2C6.47715 2 2 6.47715 2 12C2 14.7255 3.09032 17.1962 4.85857 19C5.01438 19.1558 5.0684 19.3871 4.99596 19.5855C4.78696 20.1581 4.4842 20.6861 4.10309 21.1524C3.8402 21.4741 4.0722 21.9548 4.48781 21.9892C4.98188 22.0301 5.48512 22.0513 5.99281 22.0513C6.9806 22.0513 7.93481 21.9587 8.85409 21.7826C9.07119 21.741 9.29749 21.8217 9.43285 21.993C10.2458 22.0001 11.1189 22 12 22Z" />
  <circle cx="7.5" cy="10.5" r="1.5" fill="currentColor"/>
  <circle cx="11.5" cy="7.5" r="1.5" fill="currentColor"/>
  <circle cx="16.5" cy="9.5" r="1.5" fill="currentColor"/>
  <circle cx="15.5" cy="14.5" r="1.5" fill="currentColor"/>
</svg>